<svg xmlns:xlink="http://www.w3.org/1999/xlink" class="w-full mt-6 md:mt-0" viewBox="0 0 700 519" fill="none" xmlns="http://www.w3.org/2000/svg" width="700"  height="519" ><g clip-path="url(#clip0_164_194)" fill="none"><path d="M673.98 445.816C672.064 445.816 670.148 445.337 668.392 444.378L649.715 433.512C648.598 432.873 647.959 431.754 647.959 430.476C647.959 429.198 648.598 428.079 649.715 427.44L668.392 416.574C671.745 414.657 676.055 414.657 679.567 416.574L698.244 427.44C699.361 428.079 700 429.198 700 430.476C700 431.754 699.361 432.873 698.244 433.512L679.567 444.378C677.811 445.177 675.895 445.816 673.98 445.816ZM673.98 418.012C672.543 418.012 671.106 418.332 669.829 419.131L651.152 429.997C650.992 430.156 650.832 430.316 650.832 430.476C650.832 430.636 650.832 430.796 651.152 430.955L669.829 441.821C672.383 443.259 675.416 443.259 677.97 441.821L696.648 430.955C696.807 430.796 696.967 430.636 696.967 430.476C696.967 430.316 696.967 430.156 696.648 429.997L677.97 419.131C676.693 418.492 675.416 418.012 673.98 418.012Z" fill="url(&quot;#paint0_linear_164_194&quot;)"></path><path d="M620.343 384.297C617.15 384.297 614.117 383.498 611.243 381.9L578.997 363.204C577.401 362.245 576.603 360.807 576.603 358.89C576.603 357.132 577.56 355.534 578.997 354.575L611.243 335.88C616.831 332.684 623.695 332.684 629.282 335.88L661.528 354.575C663.125 355.534 663.923 356.972 663.923 358.89C663.923 360.648 662.965 362.245 661.528 363.204L629.442 381.9C626.568 383.498 623.535 384.297 620.343 384.297ZM612.84 379.343C617.469 382.059 623.216 382.059 628.005 379.343L660.251 360.647C661.049 360.168 661.209 359.369 661.209 359.05C661.209 358.73 661.049 357.931 660.251 357.452L627.845 338.756C623.216 336.04 617.469 336.04 612.68 338.756L580.434 357.452C579.636 357.931 579.476 358.73 579.476 359.05C579.476 359.369 579.636 360.168 580.434 360.647L612.84 379.343Z" fill="url(&quot;#paint1_linear_164_194&quot;)"></path><path d="M43.74 413.698C40.5473 413.698 37.5143 412.899 34.6408 411.301L2.39453 392.606C0.798176 391.647 0 390.209 0 388.291C0 386.534 0.957811 384.936 2.39453 383.977L34.6408 365.281C40.2281 362.086 47.0924 362.086 52.6796 365.281L84.9259 383.977C86.5222 384.936 87.3204 386.374 87.3204 388.291C87.3204 390.049 86.3626 391.647 84.9259 392.606L52.6796 411.141C49.9658 412.899 46.7731 413.698 43.74 413.698ZM43.74 366.08C41.1859 366.08 38.4721 366.719 36.2372 368.158L3.99088 386.693C3.1927 387.173 3.03307 387.972 3.03307 388.291C3.03307 388.611 3.1927 389.41 3.99088 389.889L36.2372 408.585C40.8666 411.301 46.6135 411.301 51.4025 408.585L83.6488 389.889C84.447 389.41 84.6066 388.611 84.6066 388.291C84.6066 387.972 84.447 387.173 83.6488 386.693L51.4025 367.998C49.008 366.719 46.2942 366.08 43.74 366.08Z" fill="url(&quot;#paint2_linear_164_194&quot;)"></path><path opacity="0.6" d="M370.193 494.872L139.68 361.606C136.328 359.689 136.807 356.333 140.638 354.096L288.62 268.608C292.451 266.371 298.358 266.051 301.71 268.129L532.223 401.394C535.575 403.312 535.096 406.667 531.265 408.904L383.284 494.392C379.452 496.629 373.546 496.789 370.193 494.872Z" fill="#020230"></path><path d="M375.461 519C372.747 519 370.193 518.361 368.278 517.242L105.199 365.281C103.124 364.003 101.847 362.245 101.847 360.168C101.847 357.931 103.443 355.534 106.316 353.936L285.746 248.794C290.695 245.918 297.879 245.598 302.189 248.155L565.108 400.276C567.183 401.554 568.46 403.312 568.46 405.389C568.46 407.626 566.864 410.023 563.99 411.621L384.72 516.603C382.006 518.201 378.654 519 375.461 519ZM294.846 249.433C292.132 249.433 289.258 250.072 287.023 251.351L107.753 356.493C105.838 357.611 104.88 358.89 104.88 360.168C104.88 361.287 105.838 362.086 106.795 362.565L369.874 514.686C373.226 516.603 379.452 516.284 383.283 514.046L562.713 408.904C564.629 407.786 565.587 406.507 565.587 405.229C565.587 404.111 564.629 403.312 563.671 402.832L300.592 250.711C298.996 249.913 296.921 249.433 294.846 249.433Z" fill="url(&quot;#paint3_linear_164_194&quot;)"></path><path d="M593.523 177.847L363.808 45.2207C362.211 44.262 360.615 44.1022 359.178 44.5816L354.868 46.0197L356.305 46.3393C355.666 46.9784 355.187 47.9372 354.868 48.8959L302.987 217.635C301.71 221.789 303.625 226.903 307.137 228.98L536.852 361.766C537.331 362.086 537.97 362.245 538.608 362.405L537.97 363.684L541.961 362.245C543.557 361.606 544.994 360.168 545.632 357.931L597.514 189.192C598.95 185.038 597.194 179.924 593.523 177.847Z" fill="url(&quot;#paint4_radial_164_194&quot;)"></path><path d="M528.711 368.158L302.029 237.129C298.677 235.212 292.93 235.372 288.939 237.609L142.394 322.298L137.445 320.38L138.882 327.251C139.042 328.21 139.84 329.329 141.117 329.968L370.034 462.274C373.386 464.192 379.133 464.032 383.124 461.795L529.988 376.946C531.744 375.828 532.861 374.549 533.181 373.271L534.617 366.56L528.711 368.158Z" fill="url(&quot;#paint5_radial_164_194&quot;)"></path><path d="M370.193 456.362L139.68 323.097C136.328 321.179 136.807 317.824 140.638 315.587L288.62 230.099C292.451 227.861 298.358 227.542 301.71 229.619L532.223 362.725C535.575 364.642 535.096 367.998 531.265 370.235L383.284 455.723C379.452 458.12 373.546 458.28 370.193 456.362Z" fill="url(&quot;#paint6_radial_164_194&quot;)"></path><path d="M531.265 368.477L383.283 453.965C379.452 456.202 373.545 456.522 370.193 454.445L139.68 321.339C138.562 320.7 137.924 319.901 137.605 318.942C137.126 320.54 137.764 321.978 139.68 323.097L370.193 456.362C373.545 458.28 379.452 458.12 383.283 455.883L531.265 370.395C533.819 368.957 534.777 366.879 534.298 365.281C533.979 366.4 533.021 367.518 531.265 368.477Z" fill="#FFFFFF"></path><g opacity="0.4" fill="none"><path opacity="0.4" d="M249.669 301.525L241.847 297.051C241.208 296.731 241.368 296.092 242.007 295.613L251.265 290.34C252.064 289.86 253.021 289.86 253.66 290.18L261.482 294.654C262.121 294.974 261.961 295.613 261.322 296.092L252.064 301.365C251.425 301.845 250.308 301.845 249.669 301.525Z" fill="#06033E"></path><path opacity="0.4" d="M261.642 308.556L253.82 304.082C253.181 303.762 253.341 303.123 253.979 302.643L263.238 297.37C264.036 296.891 264.994 296.891 265.633 297.211L273.455 301.685C274.093 302.004 273.934 302.643 273.295 303.123L264.036 308.396C263.398 308.716 262.28 308.875 261.642 308.556Z" fill="#06033E"></path><path opacity="0.4" d="M273.774 315.427L265.951 310.953C265.313 310.633 265.473 309.994 266.111 309.514L275.37 304.241C276.168 303.762 277.126 303.762 277.764 304.082L285.587 308.556C286.225 308.875 286.065 309.514 285.427 309.994L276.168 315.267C275.37 315.746 274.252 315.746 273.774 315.427Z" fill="#06033E"></path><path opacity="0.4" d="M290.376 309.674L282.554 305.2C281.915 304.881 282.075 304.241 282.714 303.762L290.376 299.288C291.174 298.808 292.132 298.808 292.771 299.128L300.593 303.602C301.231 303.922 301.072 304.561 300.433 305.04L292.771 309.514C291.972 309.994 291.015 309.994 290.376 309.674Z" fill="#06033E"></path><path opacity="0.4" d="M302.349 316.705L294.527 312.231C293.888 311.911 294.048 311.272 294.686 310.793L302.349 306.319C303.147 305.839 304.105 305.839 304.743 306.159L312.565 310.633C313.204 310.953 313.044 311.592 312.406 312.071L304.743 316.545C304.105 317.025 302.987 317.025 302.349 316.705Z" fill="#06033E"></path><path opacity="0.4" d="M314.321 323.576L306.499 319.102C305.861 318.782 306.02 318.143 306.659 317.664L314.321 313.19C315.12 312.71 316.077 312.71 316.716 313.03L324.538 317.504C325.177 317.824 325.017 318.463 324.378 318.942L316.716 323.416C316.077 323.896 314.96 323.896 314.321 323.576Z" fill="#06033E"></path><path opacity="0.4" d="M326.453 330.607L318.631 326.133C317.993 325.813 318.152 325.174 318.791 324.695L326.453 320.22C327.251 319.741 328.209 319.741 328.848 320.061L336.67 324.535C337.308 324.854 337.149 325.494 336.51 325.973L328.848 330.447C328.05 330.767 327.092 330.926 326.453 330.607Z" fill="#06033E"></path><path opacity="0.4" d="M338.426 337.478L330.604 333.004C329.965 332.684 330.125 332.045 330.763 331.566L338.426 327.091C339.224 326.612 340.182 326.612 340.82 326.932L348.643 331.406C349.281 331.725 349.121 332.365 348.483 332.844L340.82 337.318C340.182 337.797 339.064 337.797 338.426 337.478Z" fill="#06033E"></path><path opacity="0.4" d="M350.399 344.349L342.576 339.875C341.938 339.555 342.098 338.916 342.736 338.437L350.399 333.962C351.197 333.483 352.155 333.483 352.793 333.803L360.615 338.277C361.254 338.596 361.094 339.236 360.456 339.715L352.793 344.189C352.155 344.668 351.037 344.828 350.399 344.349Z" fill="#06033E"></path><path opacity="0.4" d="M362.531 351.38L354.709 346.905C354.071 346.586 354.23 345.947 354.869 345.467L362.531 340.993C363.33 340.514 364.287 340.514 364.926 340.833L372.748 345.308C373.387 345.627 373.227 346.266 372.588 346.746L364.926 351.22C364.128 351.699 363.01 351.699 362.531 351.38Z" fill="#06033E"></path><path opacity="0.4" d="M374.504 358.251L366.682 353.776C366.043 353.457 366.203 352.818 366.842 352.338L374.504 347.864C375.302 347.385 376.26 347.385 376.899 347.704L384.721 352.179C385.359 352.498 385.2 353.137 384.561 353.617L376.899 358.091C376.26 358.57 375.143 358.73 374.504 358.251Z" fill="#06033E"></path><path opacity="0.4" d="M386.477 365.281L378.655 360.807C378.016 360.488 378.176 359.848 378.814 359.369L386.477 354.895C387.275 354.416 388.233 354.416 388.871 354.735L396.693 359.209C397.332 359.529 397.172 360.168 396.534 360.647L388.871 365.122C388.233 365.601 387.115 365.601 386.477 365.281Z" fill="#06033E"></path><path opacity="0.4" d="M398.449 372.152L390.627 367.678C389.989 367.359 390.148 366.72 390.787 366.24L398.449 361.766C399.248 361.287 400.205 361.287 400.844 361.606L408.666 366.08C409.305 366.4 409.145 367.039 408.506 367.519L400.844 371.993C400.205 372.472 399.088 372.632 398.449 372.152Z" fill="#06033E"></path><path opacity="0.4" d="M308.095 306.478L300.273 302.004C299.634 301.685 299.794 301.046 300.432 300.566L308.095 296.092C308.893 295.613 309.851 295.613 310.489 295.932L318.311 300.406C318.95 300.726 318.79 301.365 318.152 301.844L310.489 306.319C309.691 306.638 308.733 306.798 308.095 306.478Z" fill="#06033E"></path><path opacity="0.4" d="M295.804 299.288L287.982 294.814C287.343 294.494 287.503 293.855 288.141 293.376L295.804 288.901C296.602 288.422 297.56 288.422 298.198 288.742L306.02 293.216C306.659 293.535 306.499 294.175 305.861 294.654L298.198 299.128C297.56 299.607 296.442 299.767 295.804 299.288Z" fill="#06033E"></path><path opacity="0.4" d="M283.671 292.257L266.909 282.51C266.271 282.19 266.431 281.551 267.069 281.072L274.732 276.598C275.53 276.118 276.488 276.118 277.126 276.438L293.888 286.185C294.526 286.505 294.367 287.144 293.728 287.623L286.066 292.097C285.267 292.577 284.31 292.577 283.671 292.257Z" fill="#06033E"></path><path opacity="0.4" d="M292.132 283.628L278.563 275.799C277.924 275.479 278.084 274.84 278.722 274.361L286.385 269.886C287.183 269.407 288.141 269.407 288.779 269.727L302.348 277.556C302.987 277.876 302.827 278.515 302.189 278.995L294.526 283.469C293.888 283.948 292.77 284.108 292.132 283.628Z" fill="#06033E"></path><path opacity="0.4" d="M320.067 313.349L312.245 308.875C311.607 308.556 311.766 307.917 312.405 307.437L320.067 302.963C320.866 302.484 321.823 302.484 322.462 302.803L330.284 307.277C330.923 307.597 330.763 308.236 330.125 308.716L322.462 313.19C321.823 313.669 320.706 313.669 320.067 313.349Z" fill="#06033E"></path><path opacity="0.4" d="M332.04 320.22L324.218 315.746C323.579 315.427 323.739 314.788 324.378 314.308L332.04 309.834C332.838 309.355 333.796 309.355 334.435 309.674L342.257 314.148C342.895 314.468 342.736 315.107 342.097 315.587L334.435 320.061C333.796 320.54 332.679 320.7 332.04 320.22Z" fill="#06033E"></path><path opacity="0.4" d="M344.173 327.251L336.351 322.777C335.712 322.457 335.872 321.818 336.51 321.339L344.173 316.865C344.971 316.385 345.929 316.385 346.568 316.705L354.39 321.179C355.028 321.499 354.869 322.138 354.23 322.617L346.568 327.091C345.769 327.571 344.652 327.571 344.173 327.251Z" fill="#06033E"></path><path opacity="0.4" d="M356.146 334.122L348.323 329.648C347.685 329.328 347.845 328.689 348.483 328.21L356.146 323.736C356.944 323.256 357.902 323.256 358.54 323.576L366.362 328.05C367.001 328.37 366.841 329.009 366.203 329.488L358.54 333.962C357.902 334.442 356.784 334.602 356.146 334.122Z" fill="#06033E"></path><path opacity="0.4" d="M368.118 341.153L360.296 336.679C359.658 336.359 359.817 335.72 360.456 335.241L368.118 330.767C368.916 330.287 369.874 330.287 370.513 330.607L378.335 335.081C378.973 335.401 378.814 336.04 378.175 336.519L370.513 340.993C369.874 341.473 368.757 341.473 368.118 341.153Z" fill="#06033E"></path><path opacity="0.4" d="M380.091 348.024L372.269 343.55C371.63 343.23 371.79 342.591 372.428 342.112L380.091 337.638C380.889 337.158 381.847 337.158 382.485 337.478L390.308 341.952C390.946 342.272 390.786 342.911 390.148 343.39L382.485 347.864C381.847 348.344 380.729 348.503 380.091 348.024Z" fill="#06033E"></path><path opacity="0.4" d="M392.223 355.055L384.401 350.581C383.762 350.261 383.922 349.622 384.56 349.143L392.223 344.668C393.021 344.189 393.979 344.189 394.617 344.509L402.439 348.983C403.078 349.302 402.918 349.942 402.28 350.421L394.617 354.895C393.979 355.374 392.861 355.374 392.223 355.055Z" fill="#06033E"></path><path opacity="0.4" d="M404.195 361.926L396.373 357.452C395.735 357.132 395.894 356.493 396.533 356.014L404.195 351.539C404.994 351.06 405.951 351.06 406.59 351.38L414.412 355.854C415.051 356.173 414.891 356.813 414.252 357.292L406.59 361.766C405.951 362.245 404.834 362.405 404.195 361.926Z" fill="#06033E"></path><path opacity="0.4" d="M416.168 368.957L408.346 364.483C407.707 364.163 407.867 363.524 408.506 363.044L416.168 358.57C416.966 358.091 417.924 358.091 418.563 358.41L426.385 362.885C427.023 363.204 426.864 363.843 426.225 364.323L418.563 368.797C417.924 369.276 416.807 369.276 416.168 368.957Z" fill="#06033E"></path><path opacity="0.4" d="M437.559 381.26L420.638 371.513C419.999 371.194 420.159 370.555 420.798 370.075L428.46 365.601C429.258 365.122 430.216 365.122 430.855 365.441L447.776 375.188C448.414 375.508 448.255 376.147 447.616 376.627L439.954 381.101C439.315 381.58 438.198 381.58 437.559 381.26Z" fill="#06033E"></path><path opacity="0.4" d="M461.026 367.678L446.658 359.369C446.02 359.05 446.18 358.41 446.818 357.931L454.481 353.457C455.279 352.978 456.237 352.978 456.875 353.297L471.242 361.606C471.881 361.926 471.721 362.565 471.083 363.044L463.42 367.518C462.782 367.998 461.664 368.158 461.026 367.678Z" fill="#06033E"></path><path opacity="0.4" d="M341.14 311.911L333.318 307.437C332.679 307.118 332.839 306.478 333.477 305.999L341.14 301.525C341.938 301.046 342.896 301.046 343.534 301.365L351.356 305.839C351.995 306.159 351.835 306.798 351.197 307.277L343.534 311.752C342.896 312.231 341.778 312.391 341.14 311.911Z" fill="#06033E"></path><path opacity="0.4" d="M328.848 304.881L321.026 300.406C320.387 300.087 320.547 299.448 321.185 298.968L328.848 294.494C329.646 294.015 330.604 294.015 331.242 294.334L339.064 298.808C339.703 299.128 339.543 299.767 338.905 300.247L331.242 304.721C330.444 305.2 329.486 305.2 328.848 304.881Z" fill="#06033E"></path><path opacity="0.4" d="M316.397 297.69L308.574 293.216C307.936 292.896 308.096 292.257 308.734 291.778L316.397 287.304C317.195 286.824 318.153 286.824 318.791 287.144L326.613 291.618C327.252 291.937 327.092 292.577 326.454 293.056L318.791 297.53C318.153 298.01 317.035 298.169 316.397 297.69Z" fill="#06033E"></path><path opacity="0.4" d="M304.105 290.659L296.282 286.185C295.644 285.865 295.804 285.226 296.442 284.747L304.105 280.273C304.903 279.793 305.861 279.793 306.499 280.113L314.321 284.587C314.96 284.907 314.8 285.546 314.162 286.025L306.499 290.499C305.861 290.979 304.743 290.979 304.105 290.659Z" fill="#06033E"></path><path opacity="0.4" d="M353.112 318.942L345.29 314.468C344.652 314.148 344.811 313.509 345.45 313.03L353.112 308.556C353.911 308.076 354.868 308.076 355.507 308.396L363.329 312.87C363.968 313.19 363.808 313.829 363.169 314.308L355.507 318.782C354.868 319.262 353.751 319.262 353.112 318.942Z" fill="#06033E"></path><path opacity="0.4" d="M365.085 325.813L357.263 321.339C356.624 321.019 356.784 320.38 357.423 319.901L365.085 315.427C365.883 314.947 366.841 314.947 367.48 315.267L375.302 319.741C375.94 320.061 375.781 320.7 375.142 321.179L367.48 325.653C366.841 326.133 365.724 326.292 365.085 325.813Z" fill="#06033E"></path><path opacity="0.4" d="M377.218 332.844L369.396 328.37C368.757 328.05 368.917 327.411 369.555 326.932L377.218 322.457C378.016 321.978 378.974 321.978 379.612 322.298L387.435 326.772C388.073 327.091 387.913 327.731 387.275 328.21L379.612 332.684C378.974 333.163 377.856 333.163 377.218 332.844Z" fill="#06033E"></path><path opacity="0.4" d="M389.191 339.715L381.368 335.241C380.73 334.921 380.89 334.282 381.528 333.803L389.191 329.329C389.989 328.849 390.947 328.849 391.585 329.169L399.407 333.643C400.046 333.962 399.886 334.602 399.248 335.081L391.585 339.555C390.947 340.034 389.829 340.194 389.191 339.715Z" fill="#06033E"></path><path opacity="0.4" d="M401.163 346.746L393.341 342.272C392.703 341.952 392.862 341.313 393.501 340.833L401.163 336.359C401.961 335.88 402.919 335.88 403.558 336.2L411.38 340.674C412.018 340.993 411.859 341.632 411.22 342.112L403.558 346.586C402.919 347.065 401.802 347.065 401.163 346.746Z" fill="#06033E"></path><path opacity="0.4" d="M413.295 353.617L405.473 349.143C404.834 348.823 404.994 348.184 405.633 347.704L413.295 343.23C414.093 342.751 415.051 342.751 415.69 343.071L423.512 347.545C424.15 347.864 423.991 348.503 423.352 348.983L415.69 353.457C414.891 353.936 413.934 354.096 413.295 353.617Z" fill="#06033E"></path><path opacity="0.4" d="M425.268 360.647L417.446 356.173C416.807 355.854 416.967 355.215 417.605 354.735L425.268 350.261C426.066 349.782 427.024 349.782 427.662 350.101L435.484 354.575C436.123 354.895 435.963 355.534 435.325 356.014L427.662 360.488C427.024 360.967 425.906 360.967 425.268 360.647Z" fill="#06033E"></path><path opacity="0.4" d="M437.24 367.518L429.418 363.044C428.78 362.725 428.939 362.086 429.578 361.606L437.24 357.132C438.039 356.653 438.996 356.653 439.635 356.972L447.457 361.446C448.096 361.766 447.936 362.405 447.297 362.885L439.635 367.359C438.996 367.838 437.879 367.998 437.24 367.518Z" fill="#06033E"></path><path opacity="0.4" d="M449.372 374.549L441.55 370.075C440.912 369.756 441.071 369.116 441.71 368.637L449.372 364.163C450.17 363.684 451.128 363.684 451.767 364.003L459.589 368.477C460.227 368.797 460.068 369.436 459.429 369.915L451.767 374.389C450.969 374.869 449.851 374.869 449.372 374.549Z" fill="#06033E"></path><path opacity="0.4" d="M334.754 294.814L326.932 290.34C326.293 290.02 326.453 289.381 327.092 288.901L334.754 284.427C335.552 283.948 336.51 283.948 337.149 284.268L344.971 288.742C345.609 289.061 345.45 289.7 344.811 290.18L337.149 294.654C336.51 295.133 335.393 295.133 334.754 294.814Z" fill="#06033E"></path><path opacity="0.4" d="M322.781 287.943L314.959 283.469C314.321 283.149 314.48 282.51 315.119 282.03L322.781 277.556C323.58 277.077 324.537 277.077 325.176 277.397L332.998 281.871C333.637 282.19 333.477 282.829 332.838 283.309L325.176 287.783C324.537 288.262 323.42 288.262 322.781 287.943Z" fill="#06033E"></path><path opacity="0.4" d="M310.809 280.912L302.987 276.438C302.348 276.118 302.508 275.479 303.146 275L310.809 270.526C311.607 270.046 312.565 270.046 313.203 270.366L321.025 274.84C321.664 275.16 321.504 275.799 320.866 276.278L313.203 280.752C312.565 281.232 311.447 281.391 310.809 280.912Z" fill="#06033E"></path><path opacity="0.4" d="M298.836 274.041L291.014 269.567C290.375 269.247 290.535 268.608 291.174 268.129L298.836 263.655C299.634 263.175 300.592 263.175 301.231 263.495L309.053 267.969C309.691 268.288 309.532 268.928 308.893 269.407L301.231 273.881C300.592 274.361 299.475 274.361 298.836 274.041Z" fill="#06033E"></path><path opacity="0.4" d="M311.129 267.01L303.307 262.536C302.668 262.216 302.828 261.577 303.467 261.098L306.021 259.66C306.819 259.18 307.777 259.18 308.415 259.5L316.237 263.974C316.876 264.294 316.716 264.933 316.078 265.412L313.524 266.85C312.885 267.33 311.768 267.33 311.129 267.01Z" fill="#06033E"></path><path opacity="0.4" d="M326.773 275.958L318.95 271.484C318.312 271.165 318.472 270.526 319.11 270.046L321.664 268.608C322.462 268.129 323.42 268.129 324.059 268.448L331.881 272.922C332.519 273.242 332.36 273.881 331.721 274.361L329.167 275.799C328.529 276.278 327.411 276.278 326.773 275.958Z" fill="#06033E"></path><path opacity="0.4" d="M338.745 282.829L330.923 278.355C330.285 278.036 330.444 277.397 331.083 276.917L333.637 275.479C334.435 275 335.393 275 336.031 275.319L343.854 279.793C344.492 280.113 344.332 280.752 343.694 281.232L341.14 282.67C340.501 283.149 339.384 283.149 338.745 282.829Z" fill="#06033E"></path><path opacity="0.4" d="M350.559 289.7L342.737 285.226C342.098 284.907 342.258 284.268 342.896 283.788L345.45 282.35C346.249 281.871 347.206 281.871 347.845 282.19L355.667 286.664C356.306 286.984 356.146 287.623 355.507 288.102L352.953 289.541C352.315 290.02 351.197 290.18 350.559 289.7Z" fill="#06033E"></path><path opacity="0.4" d="M362.531 296.571L354.709 292.097C354.071 291.778 354.23 291.139 354.869 290.659L357.423 289.221C358.221 288.742 359.179 288.742 359.818 289.061L367.64 293.535C368.278 293.855 368.119 294.494 367.48 294.974L364.926 296.412C364.287 296.891 363.17 297.051 362.531 296.571Z" fill="#06033E"></path><path opacity="0.4" d="M429.099 335.081L421.277 330.607C420.638 330.287 420.798 329.648 421.436 329.169L423.99 327.731C424.789 327.251 425.746 327.251 426.385 327.571L434.207 332.045C434.846 332.365 434.686 333.004 434.047 333.483L431.493 334.921C430.695 335.401 429.737 335.401 429.099 335.081Z" fill="#06033E"></path><path opacity="0.4" d="M440.912 341.952L433.09 337.478C432.452 337.158 432.611 336.519 433.25 336.04L435.804 334.602C436.602 334.122 437.56 334.122 438.198 334.442L446.021 338.916C446.659 339.236 446.499 339.875 445.861 340.354L443.307 341.792C442.668 342.272 441.551 342.272 440.912 341.952Z" fill="#06033E"></path><path opacity="0.4" d="M452.885 348.823L445.063 344.349C444.424 344.029 444.584 343.39 445.222 342.911L447.777 341.473C448.575 340.993 449.533 340.993 450.171 341.313L457.993 345.787C458.632 346.107 458.472 346.746 457.834 347.225L455.279 348.663C454.641 349.143 453.523 349.143 452.885 348.823Z" fill="#06033E"></path><path opacity="0.4" d="M464.858 355.694L457.035 351.22C456.397 350.9 456.557 350.261 457.195 349.782L459.749 348.344C460.547 347.864 461.505 347.864 462.144 348.184L469.966 352.658C470.604 352.978 470.445 353.617 469.806 354.096L467.252 355.534C466.454 356.014 465.336 356.014 464.858 355.694Z" fill="#06033E"></path><path opacity="0.4" d="M346.727 301.685L338.905 297.211C338.266 296.891 338.426 296.252 339.064 295.772L346.727 291.298C347.525 290.819 348.483 290.819 349.121 291.138L356.943 295.613C357.582 295.932 357.422 296.571 356.784 297.051L349.121 301.525C348.483 302.004 347.365 302.164 346.727 301.685Z" fill="#06033E"></path><path opacity="0.4" d="M358.859 308.716L351.037 304.241C350.399 303.922 350.558 303.283 351.197 302.803L358.859 298.329C359.658 297.85 360.615 297.85 361.254 298.169L369.076 302.644C369.715 302.963 369.555 303.602 368.917 304.082L361.254 308.556C360.615 309.035 359.498 309.035 358.859 308.716Z" fill="#06033E"></path><path opacity="0.4" d="M370.832 315.587L363.01 311.112C362.371 310.793 362.531 310.154 363.17 309.674L370.832 305.2C371.63 304.721 372.588 304.721 373.227 305.04L381.049 309.515C381.687 309.834 381.528 310.473 380.889 310.953L373.227 315.427C372.588 315.906 371.471 316.066 370.832 315.587Z" fill="#06033E"></path><path opacity="0.4" d="M382.805 322.617L374.983 318.143C374.344 317.824 374.504 317.184 375.142 316.705L382.805 312.231C383.603 311.752 384.561 311.752 385.199 312.071L393.021 316.545C393.66 316.865 393.5 317.504 392.862 317.983L385.199 322.458C384.561 322.937 383.443 322.937 382.805 322.617Z" fill="#06033E"></path><path opacity="0.4" d="M394.937 329.488L387.114 325.014C386.476 324.695 386.636 324.055 387.274 323.576L394.937 319.102C395.735 318.622 396.693 318.623 397.331 318.942L405.153 323.416C405.792 323.736 405.632 324.375 404.994 324.854L397.331 329.329C396.533 329.808 395.575 329.968 394.937 329.488Z" fill="#06033E"></path><path opacity="0.4" d="M406.909 336.519L399.087 332.045C398.449 331.725 398.608 331.086 399.247 330.607L406.909 326.133C407.707 325.653 408.665 325.653 409.304 325.973L417.126 330.447C417.764 330.767 417.605 331.406 416.966 331.885L409.304 336.359C408.665 336.839 407.548 336.839 406.909 336.519Z" fill="#06033E"></path><path opacity="0.4" d="M418.882 343.39L411.06 338.916C410.421 338.596 410.581 337.957 411.219 337.478L418.882 333.004C419.68 332.524 420.638 332.524 421.276 332.844L429.099 337.318C429.737 337.638 429.577 338.277 428.939 338.756L421.276 343.23C420.638 343.71 419.52 343.87 418.882 343.39Z" fill="#06033E"></path><path opacity="0.4" d="M431.015 350.421L423.193 345.947C422.554 345.627 422.714 344.988 423.352 344.509L431.015 340.035C431.813 339.555 432.771 339.555 433.409 339.875L441.231 344.349C441.87 344.668 441.71 345.308 441.072 345.787L433.409 350.261C432.611 350.74 431.653 350.74 431.015 350.421Z" fill="#06033E"></path><path opacity="0.4" d="M442.987 357.292L435.165 352.818C434.527 352.498 434.686 351.859 435.325 351.38L442.987 346.905C443.786 346.426 444.743 346.426 445.382 346.746L453.204 351.22C453.843 351.539 453.683 352.179 453.044 352.658L445.382 357.132C444.743 357.611 443.626 357.611 442.987 357.292Z" fill="#06033E"></path><path opacity="0.4" d="M278.084 302.643L255.097 289.381C254.458 289.061 254.618 288.422 255.257 287.943L262.919 283.469C263.717 282.989 264.675 282.989 265.314 283.309L288.301 296.571C288.94 296.891 288.78 297.53 288.141 298.01L280.479 302.484C279.84 302.963 278.723 302.963 278.084 302.643Z" fill="#06033E"></path><path opacity="0.4" d="M425.747 387.972L402.759 374.709C402.12 374.389 402.28 373.75 402.919 373.271L410.581 368.797C411.379 368.317 412.337 368.317 412.976 368.637L435.963 381.9C436.602 382.219 436.442 382.858 435.804 383.338L428.141 387.812C427.503 388.291 426.385 388.291 425.747 387.972Z" fill="#06033E"></path><path opacity="0.4" d="M377.696 375.508L369.874 371.034C369.236 370.714 369.395 370.075 370.034 369.596L379.293 364.323C380.091 363.843 381.049 363.843 381.687 364.163L389.509 368.637C390.148 368.957 389.988 369.596 389.35 370.075L380.091 375.348C379.452 375.828 378.335 375.828 377.696 375.508Z" fill="#06033E"></path><path opacity="0.4" d="M290.376 325.014L277.924 317.824C277.286 317.504 277.445 316.865 278.084 316.385L287.343 311.112C288.141 310.633 289.099 310.633 289.737 310.953L302.189 318.143C302.827 318.463 302.667 319.102 302.029 319.581L292.77 324.854C292.132 325.334 291.014 325.494 290.376 325.014Z" fill="#06033E"></path><path opacity="0.4" d="M366.043 368.797L353.591 361.606C352.953 361.287 353.112 360.647 353.751 360.168L363.01 354.895C363.808 354.416 364.766 354.416 365.404 354.735L377.856 361.926C378.494 362.245 378.335 362.884 377.696 363.364L368.437 368.637C367.799 369.116 366.681 369.116 366.043 368.797Z" fill="#06033E"></path><path opacity="0.4" d="M307.776 335.081L295.324 327.89C294.686 327.571 294.846 326.932 295.484 326.452L304.743 321.179C305.541 320.7 306.499 320.7 307.137 321.019L319.589 328.21C320.228 328.53 320.068 329.169 319.429 329.648L310.171 334.921C309.372 335.401 308.415 335.401 307.776 335.081Z" fill="#06033E"></path><path opacity="0.4" d="M307.138 321.179L361.254 352.498C361.893 352.818 361.893 353.457 361.254 353.936L351.836 359.369C351.197 359.689 350.08 359.689 349.441 359.369L295.325 327.89L307.138 321.179Z" fill="#06033E"></path><path opacity="0.4" d="M411.22 388.131L419.84 393.085C420.319 393.405 420.319 393.884 419.681 394.203L415.849 396.441C415.211 396.76 414.413 396.76 413.774 396.6L405.154 391.647C404.675 391.327 404.675 390.848 405.313 390.528L409.145 388.291C409.943 387.812 410.741 387.812 411.22 388.131Z" fill="#06033E"></path><path opacity="0.4" d="M399.088 381.101L407.708 386.054C408.187 386.374 408.187 386.853 407.549 387.173L403.718 389.41C403.079 389.729 402.281 389.729 401.642 389.57L393.022 384.616C392.543 384.296 392.543 383.817 393.182 383.498L397.013 381.26C397.811 380.781 398.609 380.781 399.088 381.101Z" fill="#06033E"></path><path opacity="0.4" d="M387.116 374.23L395.736 379.183C396.215 379.503 396.215 379.982 395.576 380.302L391.745 382.539C391.106 382.858 390.308 382.858 389.67 382.699L381.049 377.745C380.57 377.425 380.57 376.946 381.209 376.627L385.04 374.389C385.679 373.91 386.637 373.91 387.116 374.23Z" fill="#06033E"></path><path opacity="0.4" d="M405.792 377.266L414.413 382.219C414.892 382.539 414.891 383.018 414.253 383.338L410.422 385.575C409.783 385.894 408.985 385.894 408.346 385.735L399.726 380.781C399.247 380.462 399.247 379.982 399.886 379.663L403.717 377.425C404.356 376.946 405.313 376.946 405.792 377.266Z" fill="#06033E"></path></g><g opacity="0.4" fill="none"><path opacity="0.4" d="M249.669 301.525L241.847 297.051C241.208 296.731 241.368 296.092 242.007 295.613L251.265 290.34C252.064 289.86 253.021 289.86 253.66 290.18L261.482 294.654C262.121 294.974 261.961 295.613 261.322 296.092L252.064 301.365C251.425 301.845 250.308 301.845 249.669 301.525Z" fill="#06033E"></path><path opacity="0.4" d="M261.642 308.556L253.82 304.082C253.181 303.762 253.341 303.123 253.979 302.643L263.238 297.37C264.036 296.891 264.994 296.891 265.633 297.211L273.455 301.685C274.093 302.004 273.934 302.643 273.295 303.123L264.036 308.396C263.398 308.716 262.28 308.875 261.642 308.556Z" fill="#06033E"></path><path opacity="0.4" d="M273.774 315.427L265.951 310.953C265.313 310.633 265.473 309.994 266.111 309.514L275.37 304.241C276.168 303.762 277.126 303.762 277.764 304.082L285.587 308.556C286.225 308.875 286.065 309.514 285.427 309.994L276.168 315.267C275.37 315.746 274.252 315.746 273.774 315.427Z" fill="#06033E"></path><path opacity="0.4" d="M290.376 309.674L282.554 305.2C281.915 304.881 282.075 304.241 282.714 303.762L290.376 299.288C291.174 298.808 292.132 298.808 292.771 299.128L300.593 303.602C301.231 303.922 301.072 304.561 300.433 305.04L292.771 309.514C291.972 309.994 291.015 309.994 290.376 309.674Z" fill="#06033E"></path><path opacity="0.4" d="M302.349 316.705L294.527 312.231C293.888 311.911 294.048 311.272 294.686 310.793L302.349 306.319C303.147 305.839 304.105 305.839 304.743 306.159L312.565 310.633C313.204 310.953 313.044 311.592 312.406 312.071L304.743 316.545C304.105 317.025 302.987 317.025 302.349 316.705Z" fill="#06033E"></path><path opacity="0.4" d="M314.321 323.576L306.499 319.102C305.861 318.782 306.02 318.143 306.659 317.664L314.321 313.19C315.12 312.71 316.077 312.71 316.716 313.03L324.538 317.504C325.177 317.824 325.017 318.463 324.378 318.942L316.716 323.416C316.077 323.896 314.96 323.896 314.321 323.576Z" fill="#06033E"></path><path opacity="0.4" d="M326.453 330.607L318.631 326.133C317.993 325.813 318.152 325.174 318.791 324.695L326.453 320.22C327.251 319.741 328.209 319.741 328.848 320.061L336.67 324.535C337.308 324.854 337.149 325.494 336.51 325.973L328.848 330.447C328.05 330.767 327.092 330.926 326.453 330.607Z" fill="#06033E"></path><path opacity="0.4" d="M338.426 337.478L330.604 333.004C329.965 332.684 330.125 332.045 330.763 331.566L338.426 327.091C339.224 326.612 340.182 326.612 340.82 326.932L348.643 331.406C349.281 331.725 349.121 332.365 348.483 332.844L340.82 337.318C340.182 337.797 339.064 337.797 338.426 337.478Z" fill="#06033E"></path><path opacity="0.4" d="M350.399 344.349L342.576 339.875C341.938 339.555 342.098 338.916 342.736 338.437L350.399 333.962C351.197 333.483 352.155 333.483 352.793 333.803L360.615 338.277C361.254 338.596 361.094 339.236 360.456 339.715L352.793 344.189C352.155 344.668 351.037 344.828 350.399 344.349Z" fill="#06033E"></path><path opacity="0.4" d="M362.531 351.38L354.709 346.905C354.071 346.586 354.23 345.947 354.869 345.467L362.531 340.993C363.33 340.514 364.287 340.514 364.926 340.833L372.748 345.308C373.387 345.627 373.227 346.266 372.588 346.746L364.926 351.22C364.128 351.699 363.01 351.699 362.531 351.38Z" fill="#06033E"></path><path opacity="0.4" d="M374.504 358.251L366.682 353.776C366.043 353.457 366.203 352.818 366.842 352.338L374.504 347.864C375.302 347.385 376.26 347.385 376.899 347.704L384.721 352.179C385.359 352.498 385.2 353.137 384.561 353.617L376.899 358.091C376.26 358.57 375.143 358.73 374.504 358.251Z" fill="#06033E"></path><path opacity="0.4" d="M386.477 365.281L378.655 360.807C378.016 360.488 378.176 359.848 378.814 359.369L386.477 354.895C387.275 354.416 388.233 354.416 388.871 354.735L396.693 359.209C397.332 359.529 397.172 360.168 396.534 360.647L388.871 365.122C388.233 365.601 387.115 365.601 386.477 365.281Z" fill="#06033E"></path><path opacity="0.4" d="M398.449 372.152L390.627 367.678C389.989 367.359 390.148 366.72 390.787 366.24L398.449 361.766C399.248 361.287 400.205 361.287 400.844 361.606L408.666 366.08C409.305 366.4 409.145 367.039 408.506 367.519L400.844 371.993C400.205 372.472 399.088 372.632 398.449 372.152Z" fill="#06033E"></path><path opacity="0.4" d="M308.095 306.478L300.273 302.004C299.634 301.685 299.794 301.046 300.432 300.566L308.095 296.092C308.893 295.613 309.851 295.613 310.489 295.932L318.311 300.406C318.95 300.726 318.79 301.365 318.152 301.844L310.489 306.319C309.691 306.638 308.733 306.798 308.095 306.478Z" fill="#06033E"></path><path opacity="0.4" d="M295.804 299.288L287.982 294.814C287.343 294.494 287.503 293.855 288.141 293.376L295.804 288.901C296.602 288.422 297.56 288.422 298.198 288.742L306.02 293.216C306.659 293.535 306.499 294.175 305.861 294.654L298.198 299.128C297.56 299.607 296.442 299.767 295.804 299.288Z" fill="#06033E"></path><path opacity="0.4" d="M283.671 292.257L266.909 282.51C266.271 282.19 266.431 281.551 267.069 281.072L274.732 276.598C275.53 276.118 276.488 276.118 277.126 276.438L293.888 286.185C294.526 286.505 294.367 287.144 293.728 287.623L286.066 292.097C285.267 292.577 284.31 292.577 283.671 292.257Z" fill="#06033E"></path><path opacity="0.4" d="M292.132 283.628L278.563 275.799C277.924 275.479 278.084 274.84 278.722 274.361L286.385 269.886C287.183 269.407 288.141 269.407 288.779 269.727L302.348 277.556C302.987 277.876 302.827 278.515 302.189 278.995L294.526 283.469C293.888 283.948 292.77 284.108 292.132 283.628Z" fill="#06033E"></path><path opacity="0.4" d="M320.067 313.349L312.245 308.875C311.607 308.556 311.766 307.917 312.405 307.437L320.067 302.963C320.866 302.484 321.823 302.484 322.462 302.803L330.284 307.277C330.923 307.597 330.763 308.236 330.125 308.716L322.462 313.19C321.823 313.669 320.706 313.669 320.067 313.349Z" fill="#06033E"></path><path opacity="0.4" d="M332.04 320.22L324.218 315.746C323.579 315.427 323.739 314.788 324.378 314.308L332.04 309.834C332.838 309.355 333.796 309.355 334.435 309.674L342.257 314.148C342.895 314.468 342.736 315.107 342.097 315.587L334.435 320.061C333.796 320.54 332.679 320.7 332.04 320.22Z" fill="#06033E"></path><path opacity="0.4" d="M344.173 327.251L336.351 322.777C335.712 322.457 335.872 321.818 336.51 321.339L344.173 316.865C344.971 316.385 345.929 316.385 346.568 316.705L354.39 321.179C355.028 321.499 354.869 322.138 354.23 322.617L346.568 327.091C345.769 327.571 344.652 327.571 344.173 327.251Z" fill="#06033E"></path><path opacity="0.4" d="M356.146 334.122L348.323 329.648C347.685 329.328 347.845 328.689 348.483 328.21L356.146 323.736C356.944 323.256 357.902 323.256 358.54 323.576L366.362 328.05C367.001 328.37 366.841 329.009 366.203 329.488L358.54 333.962C357.902 334.442 356.784 334.602 356.146 334.122Z" fill="#06033E"></path><path opacity="0.4" d="M368.118 341.153L360.296 336.679C359.658 336.359 359.817 335.72 360.456 335.241L368.118 330.767C368.916 330.287 369.874 330.287 370.513 330.607L378.335 335.081C378.973 335.401 378.814 336.04 378.175 336.519L370.513 340.993C369.874 341.473 368.757 341.473 368.118 341.153Z" fill="#06033E"></path><path opacity="0.4" d="M380.091 348.024L372.269 343.55C371.63 343.23 371.79 342.591 372.428 342.112L380.091 337.638C380.889 337.158 381.847 337.158 382.485 337.478L390.308 341.952C390.946 342.272 390.786 342.911 390.148 343.39L382.485 347.864C381.847 348.344 380.729 348.503 380.091 348.024Z" fill="#06033E"></path><path opacity="0.4" d="M392.223 355.055L384.401 350.581C383.762 350.261 383.922 349.622 384.56 349.143L392.223 344.668C393.021 344.189 393.979 344.189 394.617 344.509L402.439 348.983C403.078 349.302 402.918 349.942 402.28 350.421L394.617 354.895C393.979 355.374 392.861 355.374 392.223 355.055Z" fill="#06033E"></path><path opacity="0.4" d="M404.195 361.926L396.373 357.452C395.735 357.132 395.894 356.493 396.533 356.014L404.195 351.539C404.994 351.06 405.951 351.06 406.59 351.38L414.412 355.854C415.051 356.173 414.891 356.813 414.252 357.292L406.59 361.766C405.951 362.245 404.834 362.405 404.195 361.926Z" fill="#06033E"></path><path opacity="0.4" d="M416.168 368.957L408.346 364.483C407.707 364.163 407.867 363.524 408.506 363.044L416.168 358.57C416.966 358.091 417.924 358.091 418.563 358.41L426.385 362.885C427.023 363.204 426.864 363.843 426.225 364.323L418.563 368.797C417.924 369.276 416.807 369.276 416.168 368.957Z" fill="#06033E"></path><path opacity="0.4" d="M437.559 381.26L420.638 371.513C419.999 371.194 420.159 370.555 420.798 370.075L428.46 365.601C429.258 365.122 430.216 365.122 430.855 365.441L447.776 375.188C448.414 375.508 448.255 376.147 447.616 376.627L439.954 381.101C439.315 381.58 438.198 381.58 437.559 381.26Z" fill="#06033E"></path><path opacity="0.4" d="M461.026 367.678L446.658 359.369C446.02 359.05 446.18 358.41 446.818 357.931L454.481 353.457C455.279 352.978 456.237 352.978 456.875 353.297L471.242 361.606C471.881 361.926 471.721 362.565 471.083 363.044L463.42 367.518C462.782 367.998 461.664 368.158 461.026 367.678Z" fill="#06033E"></path><path opacity="0.4" d="M341.14 311.911L333.318 307.437C332.679 307.118 332.839 306.478 333.477 305.999L341.14 301.525C341.938 301.046 342.896 301.046 343.534 301.365L351.356 305.839C351.995 306.159 351.835 306.798 351.197 307.277L343.534 311.752C342.896 312.231 341.778 312.391 341.14 311.911Z" fill="#06033E"></path><path opacity="0.4" d="M328.848 304.881L321.026 300.406C320.387 300.087 320.547 299.448 321.185 298.968L328.848 294.494C329.646 294.015 330.604 294.015 331.242 294.334L339.064 298.808C339.703 299.128 339.543 299.767 338.905 300.247L331.242 304.721C330.444 305.2 329.486 305.2 328.848 304.881Z" fill="#06033E"></path><path opacity="0.4" d="M316.397 297.69L308.574 293.216C307.936 292.896 308.096 292.257 308.734 291.778L316.397 287.304C317.195 286.824 318.153 286.824 318.791 287.144L326.613 291.618C327.252 291.937 327.092 292.577 326.454 293.056L318.791 297.53C318.153 298.01 317.035 298.169 316.397 297.69Z" fill="#06033E"></path><path opacity="0.4" d="M304.105 290.659L296.282 286.185C295.644 285.865 295.804 285.226 296.442 284.747L304.105 280.273C304.903 279.793 305.861 279.793 306.499 280.113L314.321 284.587C314.96 284.907 314.8 285.546 314.162 286.025L306.499 290.499C305.861 290.979 304.743 290.979 304.105 290.659Z" fill="#06033E"></path><path opacity="0.4" d="M353.112 318.942L345.29 314.468C344.652 314.148 344.811 313.509 345.45 313.03L353.112 308.556C353.911 308.076 354.868 308.076 355.507 308.396L363.329 312.87C363.968 313.19 363.808 313.829 363.169 314.308L355.507 318.782C354.868 319.262 353.751 319.262 353.112 318.942Z" fill="#06033E"></path><path opacity="0.4" d="M365.085 325.813L357.263 321.339C356.624 321.019 356.784 320.38 357.423 319.901L365.085 315.427C365.883 314.947 366.841 314.947 367.48 315.267L375.302 319.741C375.94 320.061 375.781 320.7 375.142 321.179L367.48 325.653C366.841 326.133 365.724 326.292 365.085 325.813Z" fill="#06033E"></path><path opacity="0.4" d="M377.218 332.844L369.396 328.37C368.757 328.05 368.917 327.411 369.555 326.932L377.218 322.457C378.016 321.978 378.974 321.978 379.612 322.298L387.435 326.772C388.073 327.091 387.913 327.731 387.275 328.21L379.612 332.684C378.974 333.163 377.856 333.163 377.218 332.844Z" fill="#06033E"></path><path opacity="0.4" d="M389.191 339.715L381.368 335.241C380.73 334.921 380.89 334.282 381.528 333.803L389.191 329.329C389.989 328.849 390.947 328.849 391.585 329.169L399.407 333.643C400.046 333.962 399.886 334.602 399.248 335.081L391.585 339.555C390.947 340.034 389.829 340.194 389.191 339.715Z" fill="#06033E"></path><path opacity="0.4" d="M401.163 346.746L393.341 342.272C392.703 341.952 392.862 341.313 393.501 340.833L401.163 336.359C401.961 335.88 402.919 335.88 403.558 336.2L411.38 340.674C412.018 340.993 411.859 341.632 411.22 342.112L403.558 346.586C402.919 347.065 401.802 347.065 401.163 346.746Z" fill="#06033E"></path><path opacity="0.4" d="M413.295 353.617L405.473 349.143C404.834 348.823 404.994 348.184 405.633 347.704L413.295 343.23C414.093 342.751 415.051 342.751 415.69 343.071L423.512 347.545C424.15 347.864 423.991 348.503 423.352 348.983L415.69 353.457C414.891 353.936 413.934 354.096 413.295 353.617Z" fill="#06033E"></path><path opacity="0.4" d="M425.268 360.647L417.446 356.173C416.807 355.854 416.967 355.215 417.605 354.735L425.268 350.261C426.066 349.782 427.024 349.782 427.662 350.101L435.484 354.575C436.123 354.895 435.963 355.534 435.325 356.014L427.662 360.488C427.024 360.967 425.906 360.967 425.268 360.647Z" fill="#06033E"></path><path opacity="0.4" d="M437.24 367.518L429.418 363.044C428.78 362.725 428.939 362.086 429.578 361.606L437.24 357.132C438.039 356.653 438.996 356.653 439.635 356.972L447.457 361.446C448.096 361.766 447.936 362.405 447.297 362.885L439.635 367.359C438.996 367.838 437.879 367.998 437.24 367.518Z" fill="#06033E"></path><path opacity="0.4" d="M449.372 374.549L441.55 370.075C440.912 369.756 441.071 369.116 441.71 368.637L449.372 364.163C450.17 363.684 451.128 363.684 451.767 364.003L459.589 368.477C460.227 368.797 460.068 369.436 459.429 369.915L451.767 374.389C450.969 374.869 449.851 374.869 449.372 374.549Z" fill="#06033E"></path><path opacity="0.4" d="M334.754 294.814L326.932 290.34C326.293 290.02 326.453 289.381 327.092 288.901L334.754 284.427C335.552 283.948 336.51 283.948 337.149 284.268L344.971 288.742C345.609 289.061 345.45 289.7 344.811 290.18L337.149 294.654C336.51 295.133 335.393 295.133 334.754 294.814Z" fill="#06033E"></path><path opacity="0.4" d="M322.781 287.943L314.959 283.469C314.321 283.149 314.48 282.51 315.119 282.03L322.781 277.556C323.58 277.077 324.537 277.077 325.176 277.397L332.998 281.871C333.637 282.19 333.477 282.829 332.838 283.309L325.176 287.783C324.537 288.262 323.42 288.262 322.781 287.943Z" fill="#06033E"></path><path opacity="0.4" d="M310.809 280.912L302.987 276.438C302.348 276.118 302.508 275.479 303.146 275L310.809 270.526C311.607 270.046 312.565 270.046 313.203 270.366L321.025 274.84C321.664 275.16 321.504 275.799 320.866 276.278L313.203 280.752C312.565 281.232 311.447 281.391 310.809 280.912Z" fill="#06033E"></path><path opacity="0.4" d="M298.836 274.041L291.014 269.567C290.375 269.247 290.535 268.608 291.174 268.129L298.836 263.655C299.634 263.175 300.592 263.175 301.231 263.495L309.053 267.969C309.691 268.288 309.532 268.928 308.893 269.407L301.231 273.881C300.592 274.361 299.475 274.361 298.836 274.041Z" fill="#06033E"></path><path opacity="0.4" d="M311.129 267.01L303.307 262.536C302.668 262.216 302.828 261.577 303.467 261.098L306.021 259.66C306.819 259.18 307.777 259.18 308.415 259.5L316.237 263.974C316.876 264.294 316.716 264.933 316.078 265.412L313.524 266.85C312.885 267.33 311.768 267.33 311.129 267.01Z" fill="#06033E"></path><path opacity="0.4" d="M326.773 275.958L318.95 271.484C318.312 271.165 318.472 270.526 319.11 270.046L321.664 268.608C322.462 268.129 323.42 268.129 324.059 268.448L331.881 272.922C332.519 273.242 332.36 273.881 331.721 274.361L329.167 275.799C328.529 276.278 327.411 276.278 326.773 275.958Z" fill="#06033E"></path><path opacity="0.4" d="M338.745 282.829L330.923 278.355C330.285 278.036 330.444 277.397 331.083 276.917L333.637 275.479C334.435 275 335.393 275 336.031 275.319L343.854 279.793C344.492 280.113 344.332 280.752 343.694 281.232L341.14 282.67C340.501 283.149 339.384 283.149 338.745 282.829Z" fill="#06033E"></path><path opacity="0.4" d="M350.559 289.7L342.737 285.226C342.098 284.907 342.258 284.268 342.896 283.788L345.45 282.35C346.249 281.871 347.206 281.871 347.845 282.19L355.667 286.664C356.306 286.984 356.146 287.623 355.507 288.102L352.953 289.541C352.315 290.02 351.197 290.18 350.559 289.7Z" fill="#06033E"></path><path opacity="0.4" d="M362.531 296.571L354.709 292.097C354.071 291.778 354.23 291.139 354.869 290.659L357.423 289.221C358.221 288.742 359.179 288.742 359.818 289.061L367.64 293.535C368.278 293.855 368.119 294.494 367.48 294.974L364.926 296.412C364.287 296.891 363.17 297.051 362.531 296.571Z" fill="#06033E"></path><path opacity="0.4" d="M429.099 335.081L421.277 330.607C420.638 330.287 420.798 329.648 421.436 329.169L423.99 327.731C424.789 327.251 425.746 327.251 426.385 327.571L434.207 332.045C434.846 332.365 434.686 333.004 434.047 333.483L431.493 334.921C430.695 335.401 429.737 335.401 429.099 335.081Z" fill="#06033E"></path><path opacity="0.4" d="M440.912 341.952L433.09 337.478C432.452 337.158 432.611 336.519 433.25 336.04L435.804 334.602C436.602 334.122 437.56 334.122 438.198 334.442L446.021 338.916C446.659 339.236 446.499 339.875 445.861 340.354L443.307 341.792C442.668 342.272 441.551 342.272 440.912 341.952Z" fill="#06033E"></path><path opacity="0.4" d="M452.885 348.823L445.063 344.349C444.424 344.029 444.584 343.39 445.222 342.911L447.777 341.473C448.575 340.993 449.533 340.993 450.171 341.313L457.993 345.787C458.632 346.107 458.472 346.746 457.834 347.225L455.279 348.663C454.641 349.143 453.523 349.143 452.885 348.823Z" fill="#06033E"></path><path opacity="0.4" d="M464.858 355.694L457.035 351.22C456.397 350.9 456.557 350.261 457.195 349.782L459.749 348.344C460.547 347.864 461.505 347.864 462.144 348.184L469.966 352.658C470.604 352.978 470.445 353.617 469.806 354.096L467.252 355.534C466.454 356.014 465.336 356.014 464.858 355.694Z" fill="#06033E"></path><path opacity="0.4" d="M346.727 301.685L338.905 297.211C338.266 296.891 338.426 296.252 339.064 295.772L346.727 291.298C347.525 290.819 348.483 290.819 349.121 291.138L356.943 295.613C357.582 295.932 357.422 296.571 356.784 297.051L349.121 301.525C348.483 302.004 347.365 302.164 346.727 301.685Z" fill="#06033E"></path><path opacity="0.4" d="M358.859 308.716L351.037 304.241C350.399 303.922 350.558 303.283 351.197 302.803L358.859 298.329C359.658 297.85 360.615 297.85 361.254 298.169L369.076 302.644C369.715 302.963 369.555 303.602 368.917 304.082L361.254 308.556C360.615 309.035 359.498 309.035 358.859 308.716Z" fill="#06033E"></path><path opacity="0.4" d="M370.832 315.587L363.01 311.112C362.371 310.793 362.531 310.154 363.17 309.674L370.832 305.2C371.63 304.721 372.588 304.721 373.227 305.04L381.049 309.515C381.687 309.834 381.528 310.473 380.889 310.953L373.227 315.427C372.588 315.906 371.471 316.066 370.832 315.587Z" fill="#06033E"></path><path opacity="0.4" d="M382.805 322.617L374.983 318.143C374.344 317.824 374.504 317.184 375.142 316.705L382.805 312.231C383.603 311.752 384.561 311.752 385.199 312.071L393.021 316.545C393.66 316.865 393.5 317.504 392.862 317.983L385.199 322.458C384.561 322.937 383.443 322.937 382.805 322.617Z" fill="#06033E"></path><path opacity="0.4" d="M394.937 329.488L387.114 325.014C386.476 324.695 386.636 324.055 387.274 323.576L394.937 319.102C395.735 318.622 396.693 318.623 397.331 318.942L405.153 323.416C405.792 323.736 405.632 324.375 404.994 324.854L397.331 329.329C396.533 329.808 395.575 329.968 394.937 329.488Z" fill="#06033E"></path><path opacity="0.4" d="M406.909 336.519L399.087 332.045C398.449 331.725 398.608 331.086 399.247 330.607L406.909 326.133C407.707 325.653 408.665 325.653 409.304 325.973L417.126 330.447C417.764 330.767 417.605 331.406 416.966 331.885L409.304 336.359C408.665 336.839 407.548 336.839 406.909 336.519Z" fill="#06033E"></path><path opacity="0.4" d="M418.882 343.39L411.06 338.916C410.421 338.596 410.581 337.957 411.219 337.478L418.882 333.004C419.68 332.524 420.638 332.524 421.276 332.844L429.099 337.318C429.737 337.638 429.577 338.277 428.939 338.756L421.276 343.23C420.638 343.71 419.52 343.87 418.882 343.39Z" fill="#06033E"></path><path opacity="0.4" d="M431.015 350.421L423.193 345.947C422.554 345.627 422.714 344.988 423.352 344.509L431.015 340.035C431.813 339.555 432.771 339.555 433.409 339.875L441.231 344.349C441.87 344.668 441.71 345.308 441.072 345.787L433.409 350.261C432.611 350.74 431.653 350.74 431.015 350.421Z" fill="#06033E"></path><path opacity="0.4" d="M442.987 357.292L435.165 352.818C434.527 352.498 434.686 351.859 435.325 351.38L442.987 346.905C443.786 346.426 444.743 346.426 445.382 346.746L453.204 351.22C453.843 351.539 453.683 352.179 453.044 352.658L445.382 357.132C444.743 357.611 443.626 357.611 442.987 357.292Z" fill="#06033E"></path><path opacity="0.4" d="M278.084 302.643L255.097 289.381C254.458 289.061 254.618 288.422 255.257 287.943L262.919 283.469C263.717 282.989 264.675 282.989 265.314 283.309L288.301 296.571C288.94 296.891 288.78 297.53 288.141 298.01L280.479 302.484C279.84 302.963 278.723 302.963 278.084 302.643Z" fill="#06033E"></path><path opacity="0.4" d="M425.747 387.972L402.759 374.709C402.12 374.389 402.28 373.75 402.919 373.271L410.581 368.797C411.379 368.317 412.337 368.317 412.976 368.637L435.963 381.9C436.602 382.219 436.442 382.858 435.804 383.338L428.141 387.812C427.503 388.291 426.385 388.291 425.747 387.972Z" fill="#06033E"></path><path opacity="0.4" d="M377.696 375.508L369.874 371.034C369.236 370.714 369.395 370.075 370.034 369.596L379.293 364.323C380.091 363.843 381.049 363.843 381.687 364.163L389.509 368.637C390.148 368.957 389.988 369.596 389.35 370.075L380.091 375.348C379.452 375.828 378.335 375.828 377.696 375.508Z" fill="#06033E"></path><path opacity="0.4" d="M290.376 325.014L277.924 317.824C277.286 317.504 277.445 316.865 278.084 316.385L287.343 311.112C288.141 310.633 289.099 310.633 289.737 310.953L302.189 318.143C302.827 318.463 302.667 319.102 302.029 319.581L292.77 324.854C292.132 325.334 291.014 325.494 290.376 325.014Z" fill="#06033E"></path><path opacity="0.4" d="M366.043 368.797L353.591 361.606C352.953 361.287 353.112 360.647 353.751 360.168L363.01 354.895C363.808 354.416 364.766 354.416 365.404 354.735L377.856 361.926C378.494 362.245 378.335 362.884 377.696 363.364L368.437 368.637C367.799 369.116 366.681 369.116 366.043 368.797Z" fill="#06033E"></path><path opacity="0.4" d="M307.776 335.081L295.324 327.89C294.686 327.571 294.846 326.932 295.484 326.452L304.743 321.179C305.541 320.7 306.499 320.7 307.137 321.019L319.589 328.21C320.228 328.53 320.068 329.169 319.429 329.648L310.171 334.921C309.372 335.401 308.415 335.401 307.776 335.081Z" fill="#06033E"></path><path opacity="0.4" d="M307.138 321.179L361.254 352.498C361.893 352.818 361.893 353.457 361.254 353.936L351.836 359.369C351.197 359.689 350.08 359.689 349.441 359.369L295.325 327.89L307.138 321.179Z" fill="#06033E"></path><path opacity="0.4" d="M411.22 388.131L419.84 393.085C420.319 393.405 420.319 393.884 419.681 394.203L415.849 396.441C415.211 396.76 414.413 396.76 413.774 396.6L405.154 391.647C404.675 391.327 404.675 390.848 405.313 390.528L409.145 388.291C409.943 387.812 410.741 387.812 411.22 388.131Z" fill="#06033E"></path><path opacity="0.4" d="M399.088 381.101L407.708 386.054C408.187 386.374 408.187 386.853 407.549 387.173L403.718 389.41C403.079 389.729 402.281 389.729 401.642 389.57L393.022 384.616C392.543 384.296 392.543 383.817 393.182 383.498L397.013 381.26C397.811 380.781 398.609 380.781 399.088 381.101Z" fill="#06033E"></path><path opacity="0.4" d="M387.116 374.23L395.736 379.183C396.215 379.503 396.215 379.982 395.576 380.302L391.745 382.539C391.106 382.858 390.308 382.858 389.67 382.699L381.049 377.745C380.57 377.425 380.57 376.946 381.209 376.627L385.04 374.389C385.679 373.91 386.637 373.91 387.116 374.23Z" fill="#06033E"></path><path opacity="0.4" d="M405.792 377.266L414.413 382.219C414.892 382.539 414.891 383.018 414.253 383.338L410.422 385.575C409.783 385.894 408.985 385.894 408.346 385.735L399.726 380.781C399.247 380.462 399.247 379.982 399.886 379.663L403.717 377.425C404.356 376.946 405.313 376.946 405.792 377.266Z" fill="#06033E"></path></g><path d="M533.021 363.204L303.306 230.578C299.634 228.501 297.879 223.387 299.156 219.233L351.037 50.4939C352.314 46.3393 356.305 44.5816 359.977 46.6589L589.691 179.445C593.363 181.522 595.119 186.635 593.842 190.79L541.961 359.529C540.684 363.684 536.693 365.281 533.021 363.204Z" fill="url(&quot;#paint7_radial_164_194&quot;)"></path><path d="M530.786 357.292L308.095 228.501C304.583 226.583 302.827 221.63 304.105 217.635L353.751 56.2463C355.028 52.2515 358.859 50.6536 362.212 52.5711L584.903 181.362C588.415 183.28 590.171 188.233 588.894 192.228L539.247 353.617C538.13 357.611 534.298 359.369 530.786 357.292Z" fill="url(&quot;#paint8_linear_164_194&quot;)"></path><path opacity="0.4" d="M530.786 357.292L308.095 228.501C304.583 226.583 302.827 221.63 304.105 217.635L353.751 56.2463C355.028 52.2515 358.859 50.6536 362.212 52.5711L584.903 181.362C588.415 183.28 590.171 188.233 588.894 192.228L539.247 353.617C538.13 357.611 534.298 359.369 530.786 357.292Z" fill="#06033E"></path><path opacity="0.4" d="M530.786 357.292L308.095 228.501C304.583 226.583 302.827 221.63 304.105 217.635L353.751 56.2463C355.028 52.2515 358.859 50.6536 362.212 52.5711L584.903 181.362C588.415 183.28 590.171 188.233 588.894 192.228L539.247 353.617C538.13 357.611 534.298 359.369 530.786 357.292Z" fill="#06033E"></path><path opacity="0.5" d="M518.814 307.917L367.958 220.831C365.564 219.393 364.287 216.197 365.245 213.321L399.407 102.426C400.205 99.7094 402.919 98.5908 405.153 99.8691L556.009 186.955C558.403 188.393 559.68 191.589 558.722 194.465L524.561 305.36C523.922 308.236 521.208 309.355 518.814 307.917Z" fill="#06033E"></path><path d="M498.54 310.633L347.685 223.547C345.29 222.109 344.013 218.913 344.971 216.037L379.133 105.142C379.931 102.426 382.645 101.307 384.88 102.586L535.735 189.671C538.13 191.11 539.407 194.305 538.449 197.182L504.287 308.076C503.489 310.953 500.935 312.071 498.54 310.633Z" fill="url(&quot;#paint9_radial_164_194&quot;)"></path><g opacity="0.5" fill="none"><path opacity="0.5" d="M498.54 310.633L347.685 223.547C345.29 222.109 344.013 218.913 344.971 216.037L379.133 105.142C379.931 102.426 382.645 101.307 384.88 102.586L535.735 189.671C538.13 191.11 539.407 194.305 538.449 197.182L504.287 308.076C503.489 310.953 500.935 312.071 498.54 310.633Z" fill="#06033E"></path></g><path d="M535.735 189.831L384.88 102.745C383.443 101.946 381.846 101.946 380.569 102.905C381.208 102.905 382.006 103.065 382.804 103.385L533.659 190.47C536.054 191.909 537.331 195.104 536.373 197.981L502.211 308.875C501.892 309.834 501.413 310.633 500.615 311.272C502.211 311.272 503.648 310.154 504.287 308.236L538.448 197.341C539.247 194.625 537.97 191.269 535.735 189.831Z" fill="#FFFFFF"></path><path opacity="0.4" d="M308.255 401.234C306.18 401.234 304.264 400.755 302.668 399.956L242.326 365.122C240.729 364.163 239.771 362.885 239.771 361.446C239.771 359.689 241.049 358.091 243.124 356.812L274.253 338.916C278.084 336.679 283.671 336.519 287.023 338.437L347.366 373.271C348.962 374.23 349.92 375.508 349.92 376.946C349.92 378.704 348.643 380.302 346.567 381.58L315.439 399.477C313.363 400.595 310.809 401.234 308.255 401.234ZM281.436 338.596C279.201 338.596 276.966 339.076 275.21 340.194L244.082 358.091C242.485 359.05 241.687 360.168 241.687 361.127C241.687 362.245 242.485 362.885 243.283 363.364L303.626 398.358C306.339 399.956 311.448 399.796 314.64 397.879L345.769 379.982C347.366 379.023 348.164 377.905 348.164 376.946C348.164 375.828 347.366 375.188 346.567 374.709L286.225 339.875C284.948 338.916 283.192 338.596 281.436 338.596Z" fill="#06033E"></path><path class="animate-pulse" d="M421.596 160.909L412.337 155.476C411.539 154.997 411.06 153.719 411.379 152.76C411.699 151.801 412.656 151.322 413.455 151.961L422.713 157.394C423.512 157.873 423.99 159.151 423.671 160.11C423.352 161.069 422.554 161.388 421.596 160.909Z" fill="#FFFFFF"></path><path class="animate-pulse" d="M443.785 173.692L430.057 165.703C429.259 165.223 428.78 163.945 429.099 162.986C429.418 162.028 430.376 161.548 431.174 162.187L444.903 170.177C445.701 170.656 446.18 171.935 445.861 172.893C445.701 173.852 444.743 174.172 443.785 173.692Z" fill="#FFFFFF"></path><path class="animate-pulse" d="M402.759 202.455L393.5 197.022C392.702 196.542 392.223 195.264 392.542 194.305C392.862 193.347 393.819 192.867 394.618 193.506L403.877 198.939C404.675 199.419 405.154 200.697 404.834 201.656C404.675 202.614 403.717 202.934 402.759 202.455Z" fill="#FFFFFF"></path><path class="animate-pulse" d="M422.554 213.8L408.825 205.81C408.027 205.331 407.548 204.053 407.868 203.094C408.187 202.135 409.145 201.656 409.943 202.295L423.671 210.284C424.47 210.764 424.949 212.042 424.629 213.001C424.47 213.96 423.512 214.439 422.554 213.8Z" fill="#FFFFFF"></path><path d="M393.659 153.559L387.912 150.203C387.114 149.724 386.635 148.445 386.954 147.487C387.274 146.528 388.232 146.049 389.03 146.688L394.777 150.043C395.575 150.523 396.054 151.801 395.734 152.76C395.415 153.559 394.617 154.038 393.659 153.559Z" fill="#FFFFFF"></path><path d="M411.22 172.414L393.5 162.187C392.702 161.708 392.223 160.43 392.542 159.471C392.862 158.512 393.819 158.033 394.618 158.672L412.337 168.899C413.135 169.378 413.614 170.656 413.295 171.615C412.976 172.414 412.018 172.893 411.22 172.414Z" fill="#FFFFFF"></path><path d="M394.777 180.404L389.03 177.048C388.232 176.569 387.753 175.29 388.073 174.332C388.392 173.373 389.35 172.893 390.148 173.533L395.895 176.888C396.693 177.368 397.172 178.646 396.853 179.605C396.533 180.404 395.735 180.883 394.777 180.404Z" fill="#FFFFFF"></path><path d="M424.789 232.655L409.304 223.707C408.506 223.227 408.027 221.949 408.346 220.99C408.665 220.032 409.623 219.552 410.421 220.191L425.906 229.14C426.704 229.619 427.183 230.897 426.864 231.856C426.545 232.655 425.587 233.135 424.789 232.655Z" fill="#FFFFFF"></path><path d="M388.232 193.986L384.561 191.749C383.763 191.269 383.284 189.991 383.603 189.032C383.922 188.074 384.88 187.594 385.678 188.233L389.35 190.47C390.148 190.95 390.627 192.228 390.308 193.187C390.148 194.146 389.19 194.465 388.232 193.986Z" fill="#FFFFFF"></path><path d="M384.72 209.485L380.091 206.769C379.293 206.29 378.814 205.011 379.133 204.053C379.452 203.094 380.41 202.614 381.208 203.254L385.838 205.97C386.636 206.449 387.115 207.728 386.796 208.687C386.476 209.645 385.678 209.965 384.72 209.485Z" fill="#FFFFFF"></path><path class="animate-pulse" d="M402.759 219.872L390.467 212.841C389.669 212.362 389.19 211.083 389.509 210.125C389.828 209.166 390.786 208.687 391.584 209.326L403.876 216.356C404.674 216.836 405.153 218.114 404.834 219.073C404.675 220.032 403.717 220.351 402.759 219.872Z" fill="#FFFFFF"></path><path d="M386.636 219.393L377.856 214.279C377.057 213.8 376.579 212.522 376.898 211.563C377.217 210.604 378.175 210.125 378.973 210.764L387.753 215.877C388.551 216.356 389.03 217.635 388.711 218.594C388.551 219.393 387.593 219.872 386.636 219.393Z" fill="#FFFFFF"></path><path d="M438.039 240.325L432.451 237.129C431.653 236.65 431.174 235.372 431.494 234.413C431.813 233.454 432.771 232.975 433.569 233.614L439.156 236.81C439.954 237.289 440.433 238.567 440.114 239.526C439.954 240.485 438.996 240.804 438.039 240.325Z" fill="#FFFFFF"></path><path d="M416.488 192.867L401.003 183.919C400.205 183.44 399.726 182.161 400.045 181.203C400.365 180.244 401.322 179.764 402.121 180.404L417.605 189.352C418.403 189.831 418.882 191.11 418.563 192.068C418.244 193.027 417.286 193.347 416.488 192.867Z" fill="#FFFFFF"></path><path class="animate-pulse" d="M418.244 185.197L391.106 169.538C390.308 169.058 389.829 167.78 390.148 166.821C390.467 165.863 391.425 165.383 392.223 166.022L419.361 181.682C420.159 182.161 420.638 183.44 420.319 184.398C420.159 185.357 419.201 185.677 418.244 185.197Z" fill="#E8975B"></path><path class="animate-pulse" d="M402.281 193.347L386.796 184.398C385.998 183.919 385.519 182.641 385.838 181.682C386.158 180.723 387.115 180.244 387.914 180.883L403.398 189.831C404.196 190.311 404.675 191.589 404.356 192.548C404.037 193.506 403.239 193.986 402.281 193.347Z" fill="#E8975B"></path><path d="M428.301 199.738L422.714 196.543C421.916 196.063 421.437 194.785 421.756 193.826C422.076 192.867 423.033 192.388 423.832 193.027L429.419 196.223C430.217 196.702 430.696 197.981 430.377 198.939C430.057 199.738 429.099 200.218 428.301 199.738Z" fill="#E8975B"></path><path class="animate-pulse" d="M485.77 197.981L452.246 178.646C451.448 178.167 450.969 176.888 451.288 175.929C451.608 174.971 452.566 174.491 453.364 175.131L486.887 194.465C487.685 194.945 488.164 196.223 487.845 197.182C487.526 198.14 486.568 198.46 485.77 197.981Z" fill="#E8975B"></path><path d="M401.003 210.125L382.325 199.259C381.527 198.78 381.048 197.501 381.368 196.542C381.687 195.584 382.645 195.104 383.443 195.744L402.12 206.609C402.918 207.089 403.397 208.367 403.078 209.326C402.759 210.284 401.801 210.604 401.003 210.125Z" fill="#F8359E"></path><path d="M403.876 150.683L390.148 142.693C389.349 142.214 388.871 140.935 389.19 139.977C389.509 139.018 390.467 138.538 391.265 139.178L404.994 147.167C405.792 147.647 406.271 148.925 405.952 149.884C405.632 150.683 404.674 151.162 403.876 150.683Z" fill="#F8359E"></path><path d="M383.763 226.423L367.799 217.155C367.001 216.676 366.522 215.398 366.841 214.439C367.16 213.48 368.118 213.001 368.916 213.64L384.88 222.908C385.678 223.387 386.157 224.666 385.838 225.624C385.678 226.423 384.72 226.903 383.763 226.423Z" fill="#E8975B"></path><path d="M489.441 180.723L482.577 176.728C481.939 176.409 481.619 175.45 481.779 174.811C481.939 174.172 482.737 173.852 483.375 174.172L490.24 178.167C490.878 178.486 491.197 179.445 491.038 180.084C490.878 180.883 490.08 181.043 489.441 180.723Z" fill="#FFFFFF"></path><path d="M502.531 188.233L495.667 184.239C495.028 183.919 494.709 182.96 494.869 182.321C495.028 181.682 495.827 181.362 496.465 181.682L503.329 185.677C503.968 185.996 504.287 186.955 504.128 187.594C503.808 188.393 503.17 188.553 502.531 188.233Z" fill="#FFFFFF"></path><path d="M515.462 195.744L508.598 191.749C507.959 191.429 507.64 190.47 507.799 189.831C507.959 189.192 508.757 188.873 509.396 189.192L516.26 193.187C516.899 193.506 517.218 194.465 517.058 195.104C516.739 195.903 516.1 196.063 515.462 195.744Z" fill="#FFFFFF"></path><path d="M521.847 199.419L521.687 199.259C521.049 198.939 520.73 197.981 520.889 197.341C521.049 196.702 521.847 196.383 522.486 196.702L522.645 196.862C523.284 197.182 523.603 198.14 523.444 198.78C523.284 199.578 522.486 199.738 521.847 199.419Z" fill="#F8359E"></path><path d="M170.171 279.314C165.861 279.314 161.551 278.196 157.719 275.958L112.064 249.593C110.148 248.474 108.871 246.397 108.871 244.16C108.871 241.923 109.989 239.846 112.064 238.727L157.719 212.362C165.382 207.888 174.96 207.888 182.623 212.362L228.278 238.727C230.194 239.846 231.471 241.923 231.471 244.16C231.471 246.397 230.353 248.474 228.278 249.593L182.623 275.958C178.791 278.196 174.481 279.314 170.171 279.314ZM159.156 273.402C165.861 277.397 174.321 277.397 181.186 273.402L226.841 247.036C227.959 246.397 228.438 245.279 228.438 244.16C228.438 242.882 227.799 241.923 226.841 241.284L181.186 214.918C174.481 210.924 166.02 210.924 159.156 214.918L113.501 241.284C112.383 241.923 111.904 243.042 111.904 244.16C111.904 245.438 112.543 246.397 113.501 247.036L159.156 273.402Z" fill="url(&quot;#paint10_linear_164_194&quot;)"></path><path opacity="0.6" d="M170.011 262.696C187.291 262.696 201.3 254.612 201.3 244.639C201.3 234.667 187.291 226.583 170.011 226.583C152.731 226.583 138.723 234.667 138.723 244.639C138.723 254.612 152.731 262.696 170.011 262.696Z" fill="#020230"></path><path d="M216.465 115.529H127.069L135.37 212.362C135.37 217.795 138.882 223.068 146.066 227.222C160.273 235.372 183.261 235.372 197.468 227.222C204.492 223.068 208.164 217.795 208.164 212.362L216.465 115.529Z" fill="url(&quot;#paint11_radial_164_194&quot;)"></path><path opacity="0.4" d="M216.465 115.529H127.069L128.506 131.508C130.581 134.064 133.295 136.621 136.807 139.018C153.888 150.203 181.984 152.44 201.14 144.291L198.107 215.078C197.947 218.114 196.99 221.15 194.914 223.547C192.041 226.903 186.454 230.897 175.758 233.294C183.58 232.815 191.243 230.738 197.309 227.222C204.333 223.068 208.004 217.795 208.004 212.362L214.709 134.704L216.465 115.529Z" fill="#06033E"></path><path opacity="0.4" d="M171.767 141.255C196.453 141.255 216.465 129.737 216.465 115.529C216.465 101.32 196.453 89.8024 171.767 89.8024C147.081 89.8024 127.069 101.32 127.069 115.529C127.069 129.737 147.081 141.255 171.767 141.255Z" fill="#06033E"></path><path opacity="0.4" d="M171.767 128.631C193.015 128.631 210.239 118.687 210.239 106.421C210.239 94.1538 193.015 84.2097 171.767 84.2097C150.519 84.2097 133.295 94.1538 133.295 106.421C133.295 118.687 150.519 128.631 171.767 128.631Z" fill="#06033E"></path><path d="M219.019 114.41C219.019 114.25 219.019 114.25 219.019 114.25L218.221 105.622V105.781C217.902 99.23 213.272 92.6786 204.652 87.7251C186.454 77.1789 157.081 77.1789 139.042 87.7251C130.102 92.8384 125.633 99.5496 125.473 106.261L124.515 113.771C124.515 113.931 124.515 114.25 124.515 114.41V114.57C124.036 121.92 128.666 129.43 138.403 135.023C156.921 145.729 186.932 145.729 205.291 135.023C215.028 129.271 219.658 121.76 219.019 114.41Z" fill="url(&quot;#paint12_linear_164_194&quot;)"></path><path d="M171.767 128.631C193.015 128.631 210.239 118.687 210.239 106.421C210.239 94.1538 193.015 84.2097 171.767 84.2097C150.519 84.2097 133.295 94.1538 133.295 106.421C133.295 118.687 150.519 128.631 171.767 128.631Z" fill="url(&quot;#paint13_linear_164_194&quot;)"></path><path d="M170.011 128.631C191.259 128.631 208.483 118.687 208.483 106.421C208.483 94.1538 191.259 84.2097 170.011 84.2097C148.764 84.2097 131.539 94.1538 131.539 106.421C131.539 118.687 148.764 128.631 170.011 128.631Z" fill="url(&quot;#paint14_linear_164_194&quot;)"></path><path opacity="0.4" d="M149.099 94.1167C164.105 85.488 188.529 85.488 203.534 94.1167C203.694 94.2765 203.854 94.2765 204.013 94.4363C202.577 93.1579 200.821 91.8796 198.905 90.7611C183.899 82.1324 159.475 82.1324 144.469 90.7611C129.623 99.3898 129.464 113.132 143.991 121.92C134.412 113.292 136.168 101.627 149.099 94.1167Z" fill="#06033E"></path><path d="M144.629 94.596C159.635 85.9674 184.059 85.9674 199.065 94.596C205.769 98.431 209.441 103.385 210.239 108.338C211.197 101.946 207.525 95.5548 199.065 90.7611C184.059 82.1324 159.635 82.1324 144.629 90.7611C136.328 95.5548 132.497 102.106 133.455 108.338C134.253 103.385 137.924 98.431 144.629 94.596Z" fill="url(&quot;#paint15_linear_164_194&quot;)"></path><path d="M204.971 87.7251C186.773 77.0191 157.241 76.6995 139.042 87.0859C120.844 97.4723 120.684 114.41 138.723 125.116C156.762 135.822 186.294 135.982 204.652 125.755C222.851 115.369 223.01 98.431 204.971 87.7251ZM198.905 122.24C193.957 125.116 187.89 127.034 181.345 127.992L180.707 125.755C180.388 124.796 179.589 124.157 178.632 124.157H164.743C163.786 124.157 162.987 124.796 162.668 125.755L162.03 127.992C155.644 127.034 149.578 125.116 144.47 122.24C129.464 113.611 129.464 99.5496 144.47 90.7611C159.475 82.1324 183.9 82.1324 198.905 90.7611C214.071 99.3898 214.071 113.451 198.905 122.24Z" fill="url(&quot;#paint16_radial_164_194&quot;)"></path><path d="M198.905 89.1632C183.899 80.5345 159.475 80.5345 144.469 89.1632C136.647 93.6373 132.816 99.7094 133.295 105.622C133.614 100.189 137.445 94.9156 144.469 90.7611C159.475 82.1324 183.899 82.1324 198.905 90.7611C206.088 94.9156 209.76 100.189 210.079 105.622C210.558 99.7094 206.887 93.6373 198.905 89.1632Z" fill="#FFFFFF"></path><path d="M204.492 124.157C186.134 134.544 156.761 134.224 138.563 123.518C129.943 118.405 125.473 111.853 125.154 105.302C124.834 112.333 129.304 119.683 138.563 125.116C156.602 135.822 186.134 135.982 204.492 125.755C214.07 120.322 218.7 113.132 218.221 105.781C218.061 112.493 213.432 119.204 204.492 124.157Z" fill="#FFFFFF"></path><path d="M175.917 129.111H167.616C166.978 129.111 166.499 128.631 166.499 127.992V127.833C166.499 127.193 166.978 126.714 167.616 126.714H175.917C176.556 126.714 177.035 127.193 177.035 127.833V127.992C176.875 128.631 176.556 129.111 175.917 129.111Z" fill="#0C0A78"></path><path d="M175.917 126.874H167.616C166.978 126.874 166.499 127.353 166.499 127.992V128.152C166.499 128.312 166.499 128.312 166.499 128.472C166.659 127.992 166.978 127.673 167.457 127.673H175.758C176.237 127.673 176.556 127.992 176.716 128.472C176.716 128.312 176.716 128.312 176.716 128.152V127.992C176.875 127.353 176.556 126.874 175.917 126.874Z" fill="url(&quot;#paint17_linear_164_194&quot;)"></path><path opacity="0.5" d="M174.64 127.992C174.64 127.992 199.543 119.683 189.486 90.9209C179.429 62.1586 159.634 53.5299 167.616 30.52C167.616 30.52 155.165 49.0557 166.818 74.3027C178.471 99.3898 181.026 96.5136 180.866 108.658C180.706 122.879 169.213 128.152 169.213 128.152H174.64V127.992Z" fill="#FFFFFF"></path><path opacity="0.5" d="M176.875 34.5148C176.875 34.5148 174.321 17.2574 190.444 0C190.444 0 176.237 31.7983 180.866 47.6176C180.866 47.6176 177.035 37.5508 176.875 34.5148Z" fill="#FFFFFF"></path></g><defs><linearGradient id="paint0_linear_164_194" x1="647.917" y1="430.427" x2="699.977" y2="430.427" gradientUnits="userSpaceOnUse"><stop stop-color="#00ACBF"></stop><stop offset="1" stop-color="#006CD4"></stop></linearGradient><linearGradient id="paint1_linear_164_194" x1="576.639" y1="359.011" x2="664.084" y2="359.011" gradientUnits="userSpaceOnUse"><stop stop-color="#00ACBF"></stop><stop offset="1" stop-color="#006CD4"></stop></linearGradient><linearGradient id="paint2_linear_164_194" x1="0" y1="388.336" x2="87.4454" y2="388.336" gradientUnits="userSpaceOnUse"><stop stop-color="#00ACBF"></stop><stop offset="1" stop-color="#006CD4"></stop></linearGradient><linearGradient id="paint3_linear_164_194" x1="101.806" y1="382.722" x2="568.512" y2="382.722" gradientUnits="userSpaceOnUse"><stop stop-color="#00ACBF"></stop><stop offset="1" stop-color="#006CD4"></stop></linearGradient><radialGradient id="paint4_radial_164_194" cx="0" cy="0" r="1" gradientUnits="userSpaceOnUse" gradientTransform="translate(359.595 36.8479) scale(356.459 356.806)"><stop stop-color="#E39A65"></stop><stop offset="0.4742" stop-color="#A92FFB"></stop><stop offset="0.5947" stop-color="#891CFB"></stop><stop offset="0.7421" stop-color="#6507FA"></stop><stop offset="0.8016" stop-color="#0D0C6F"></stop></radialGradient><radialGradient id="paint5_radial_164_194" cx="0" cy="0" r="1" gradientUnits="userSpaceOnUse" gradientTransform="translate(141.577 323.389) scale(389.785 390.164)"><stop stop-color="#E39A65"></stop><stop offset="0.4742" stop-color="#A92FFB"></stop><stop offset="0.5679" stop-color="#891CFB"></stop><stop offset="0.6825" stop-color="#6507FA"></stop><stop offset="0.7381" stop-color="#0D0C6F"></stop></radialGradient><radialGradient id="paint6_radial_164_194" cx="0" cy="0" r="1" gradientUnits="userSpaceOnUse" gradientTransform="translate(177.427 245.077) scale(349.537 349.878)"><stop stop-color="#E39A65"></stop><stop offset="0.4742" stop-color="#A92FFB"></stop><stop offset="0.5875" stop-color="#891CFB"></stop><stop offset="0.7262" stop-color="#6507FA"></stop><stop offset="1" stop-color="#3919BB"></stop></radialGradient><radialGradient id="paint7_radial_164_194" cx="0" cy="0" r="1" gradientUnits="userSpaceOnUse" gradientTransform="translate(264.503 111.274) scale(356.531 356.878)"><stop stop-color="#E39A65"></stop><stop offset="0.4742" stop-color="#A92FFB"></stop><stop offset="0.5875" stop-color="#891CFB"></stop><stop offset="0.7262" stop-color="#6507FA"></stop><stop offset="1" stop-color="#3919BB"></stop></radialGradient><linearGradient id="paint8_linear_164_194" x1="303.69" y1="204.955" x2="589.384" y2="204.955" gradientUnits="userSpaceOnUse"><stop stop-color="#3919BB"></stop><stop offset="1" stop-color="#6507FA"></stop></linearGradient><radialGradient id="paint9_radial_164_194" cx="0" cy="0" r="1" gradientUnits="userSpaceOnUse" gradientTransform="translate(134.351 35.0649) scale(555.287 555.828)"><stop stop-color="#E39A65"></stop><stop offset="0.4742" stop-color="#A92FFB"></stop><stop offset="0.5875" stop-color="#891CFB"></stop><stop offset="0.7262" stop-color="#6507FA"></stop><stop offset="1" stop-color="#3919BB"></stop></radialGradient><linearGradient id="paint10_linear_164_194" x1="108.91" y1="244.074" x2="231.471" y2="244.074" gradientUnits="userSpaceOnUse"><stop stop-color="#00ACBF"></stop><stop offset="1" stop-color="#006CD4"></stop></linearGradient><radialGradient id="paint11_radial_164_194" cx="0" cy="0" r="1" gradientUnits="userSpaceOnUse" gradientTransform="translate(119.776 144.005) scale(263.955 264.212)"><stop stop-color="#E39A65"></stop><stop offset="0.1528" stop-color="#A92FFB"></stop><stop offset="0.4087" stop-color="#3919BB"></stop><stop offset="0.9311" stop-color="#3919BB"></stop></radialGradient><linearGradient id="paint12_linear_164_194" x1="124.447" y1="111.274" x2="219.126" y2="111.274" gradientUnits="userSpaceOnUse"><stop stop-color="#E39A65"></stop><stop offset="0.252" stop-color="#A92FFB"></stop><stop offset="0.5556" stop-color="#3919BB"></stop></linearGradient><linearGradient id="paint13_linear_164_194" x1="133.325" y1="106.459" x2="210.244" y2="106.459" gradientUnits="userSpaceOnUse"><stop stop-color="#4F1FEC"></stop><stop offset="1" stop-color="#A92FFB"></stop></linearGradient><linearGradient id="paint14_linear_164_194" x1="131.5" y1="106.459" x2="208.419" y2="106.459" gradientUnits="userSpaceOnUse"><stop stop-color="#4F1FEC"></stop><stop offset="1" stop-color="#A92FFB"></stop></linearGradient><linearGradient id="paint15_linear_164_194" x1="133.331" y1="96.3104" x2="230.313" y2="96.3104" gradientUnits="userSpaceOnUse"><stop stop-color="#131060"></stop><stop offset="0.1857" stop-color="#141062"></stop><stop offset="0.2823" stop-color="#19106A"></stop><stop offset="0.3584" stop-color="#221078"></stop><stop offset="0.4238" stop-color="#2E0F8B"></stop><stop offset="0.4823" stop-color="#3E0FA3"></stop><stop offset="0.5359" stop-color="#510EC2"></stop><stop offset="0.5847" stop-color="#680DE5"></stop><stop offset="0.6071" stop-color="#740DF8"></stop><stop offset="0.6179" stop-color="#7A14F0"></stop><stop offset="0.6826" stop-color="#9B3CC3"></stop><stop offset="0.7477" stop-color="#B75D9D"></stop><stop offset="0.8123" stop-color="#CC7680"></stop><stop offset="0.8762" stop-color="#DC886C"></stop><stop offset="0.9391" stop-color="#E5935F"></stop><stop offset="1" stop-color="#E8975B"></stop></linearGradient><radialGradient id="paint16_radial_164_194" cx="0" cy="0" r="1" gradientUnits="userSpaceOnUse" gradientTransform="translate(112.63 84.4612) scale(172.669 172.837)"><stop stop-color="#E39A65"></stop><stop offset="0.252" stop-color="#A92FFB"></stop><stop offset="0.7357" stop-color="#3919BB"></stop></radialGradient><linearGradient id="paint17_linear_164_194" x1="165.697" y1="127.641" x2="179.114" y2="127.641" gradientUnits="userSpaceOnUse"><stop stop-color="#131060"></stop><stop offset="0.1857" stop-color="#141062"></stop><stop offset="0.2823" stop-color="#19106A"></stop><stop offset="0.3584" stop-color="#221078"></stop><stop offset="0.4238" stop-color="#2E0F8B"></stop><stop offset="0.4823" stop-color="#3E0FA3"></stop><stop offset="0.5359" stop-color="#510EC2"></stop><stop offset="0.5847" stop-color="#680DE5"></stop><stop offset="0.6071" stop-color="#740DF8"></stop><stop offset="0.6179" stop-color="#7A14F0"></stop><stop offset="0.6826" stop-color="#9B3CC3"></stop><stop offset="0.7477" stop-color="#B75D9D"></stop><stop offset="0.8123" stop-color="#CC7680"></stop><stop offset="0.8762" stop-color="#DC886C"></stop><stop offset="0.9391" stop-color="#E5935F"></stop><stop offset="1" stop-color="#E8975B"></stop></linearGradient><clipPath id="clip0_164_194"><rect width="700" height="519" fill="white"></rect></clipPath><linearGradient id="paint0_linear_164_194" x1="647.917" y1="430.427" x2="699.977" y2="430.427" gradientUnits="userSpaceOnUse"><stop stop-color="#00ACBF"></stop><stop offset="1" stop-color="#006CD4"></stop></linearGradient><linearGradient id="paint1_linear_164_194" x1="576.639" y1="359.011" x2="664.084" y2="359.011" gradientUnits="userSpaceOnUse"><stop stop-color="#00ACBF"></stop><stop offset="1" stop-color="#006CD4"></stop></linearGradient><linearGradient id="paint2_linear_164_194" x1="0" y1="388.336" x2="87.4454" y2="388.336" gradientUnits="userSpaceOnUse"><stop stop-color="#00ACBF"></stop><stop offset="1" stop-color="#006CD4"></stop></linearGradient><linearGradient id="paint3_linear_164_194" x1="101.806" y1="382.722" x2="568.512" y2="382.722" gradientUnits="userSpaceOnUse"><stop stop-color="#00ACBF"></stop><stop offset="1" stop-color="#006CD4"></stop></linearGradient><radialGradient id="paint4_radial_164_194" cx="0" cy="0" r="1" gradientUnits="userSpaceOnUse" gradientTransform="translate(359.595 36.8479) scale(356.459 356.806)"><stop stop-color="#E39A65"></stop><stop offset="0.4742" stop-color="#A92FFB"></stop><stop offset="0.5947" stop-color="#891CFB"></stop><stop offset="0.7421" stop-color="#6507FA"></stop><stop offset="0.8016" stop-color="#0D0C6F"></stop></radialGradient><radialGradient id="paint5_radial_164_194" cx="0" cy="0" r="1" gradientUnits="userSpaceOnUse" gradientTransform="translate(141.577 323.389) scale(389.785 390.164)"><stop stop-color="#E39A65"></stop><stop offset="0.4742" stop-color="#A92FFB"></stop><stop offset="0.5679" stop-color="#891CFB"></stop><stop offset="0.6825" stop-color="#6507FA"></stop><stop offset="0.7381" stop-color="#0D0C6F"></stop></radialGradient><radialGradient id="paint6_radial_164_194" cx="0" cy="0" r="1" gradientUnits="userSpaceOnUse" gradientTransform="translate(177.427 245.077) scale(349.537 349.878)"><stop stop-color="#E39A65"></stop><stop offset="0.4742" stop-color="#A92FFB"></stop><stop offset="0.5875" stop-color="#891CFB"></stop><stop offset="0.7262" stop-color="#6507FA"></stop><stop offset="1" stop-color="#3919BB"></stop></radialGradient><radialGradient id="paint7_radial_164_194" cx="0" cy="0" r="1" gradientUnits="userSpaceOnUse" gradientTransform="translate(264.503 111.274) scale(356.531 356.878)"><stop stop-color="#E39A65"></stop><stop offset="0.4742" stop-color="#A92FFB"></stop><stop offset="0.5875" stop-color="#891CFB"></stop><stop offset="0.7262" stop-color="#6507FA"></stop><stop offset="1" stop-color="#3919BB"></stop></radialGradient><linearGradient id="paint8_linear_164_194" x1="303.69" y1="204.955" x2="589.384" y2="204.955" gradientUnits="userSpaceOnUse"><stop stop-color="#3919BB"></stop><stop offset="1" stop-color="#6507FA"></stop></linearGradient><radialGradient id="paint9_radial_164_194" cx="0" cy="0" r="1" gradientUnits="userSpaceOnUse" gradientTransform="translate(134.351 35.0649) scale(555.287 555.828)"><stop stop-color="#E39A65"></stop><stop offset="0.4742" stop-color="#A92FFB"></stop><stop offset="0.5875" stop-color="#891CFB"></stop><stop offset="0.7262" stop-color="#6507FA"></stop><stop offset="1" stop-color="#3919BB"></stop></radialGradient><linearGradient id="paint10_linear_164_194" x1="108.91" y1="244.074" x2="231.471" y2="244.074" gradientUnits="userSpaceOnUse"><stop stop-color="#00ACBF"></stop><stop offset="1" stop-color="#006CD4"></stop></linearGradient><radialGradient id="paint11_radial_164_194" cx="0" cy="0" r="1" gradientUnits="userSpaceOnUse" gradientTransform="translate(119.776 144.005) scale(263.955 264.212)"><stop stop-color="#E39A65"></stop><stop offset="0.1528" stop-color="#A92FFB"></stop><stop offset="0.4087" stop-color="#3919BB"></stop><stop offset="0.9311" stop-color="#3919BB"></stop></radialGradient><linearGradient id="paint12_linear_164_194" x1="124.447" y1="111.274" x2="219.126" y2="111.274" gradientUnits="userSpaceOnUse"><stop stop-color="#E39A65"></stop><stop offset="0.252" stop-color="#A92FFB"></stop><stop offset="0.5556" stop-color="#3919BB"></stop></linearGradient><linearGradient id="paint13_linear_164_194" x1="133.325" y1="106.459" x2="210.244" y2="106.459" gradientUnits="userSpaceOnUse"><stop stop-color="#4F1FEC"></stop><stop offset="1" stop-color="#A92FFB"></stop></linearGradient><linearGradient id="paint14_linear_164_194" x1="131.5" y1="106.459" x2="208.419" y2="106.459" gradientUnits="userSpaceOnUse"><stop stop-color="#4F1FEC"></stop><stop offset="1" stop-color="#A92FFB"></stop></linearGradient><linearGradient id="paint15_linear_164_194" x1="133.331" y1="96.3104" x2="230.313" y2="96.3104" gradientUnits="userSpaceOnUse"><stop stop-color="#131060"></stop><stop offset="0.1857" stop-color="#141062"></stop><stop offset="0.2823" stop-color="#19106A"></stop><stop offset="0.3584" stop-color="#221078"></stop><stop offset="0.4238" stop-color="#2E0F8B"></stop><stop offset="0.4823" stop-color="#3E0FA3"></stop><stop offset="0.5359" stop-color="#510EC2"></stop><stop offset="0.5847" stop-color="#680DE5"></stop><stop offset="0.6071" stop-color="#740DF8"></stop><stop offset="0.6179" stop-color="#7A14F0"></stop><stop offset="0.6826" stop-color="#9B3CC3"></stop><stop offset="0.7477" stop-color="#B75D9D"></stop><stop offset="0.8123" stop-color="#CC7680"></stop><stop offset="0.8762" stop-color="#DC886C"></stop><stop offset="0.9391" stop-color="#E5935F"></stop><stop offset="1" stop-color="#E8975B"></stop></linearGradient><radialGradient id="paint16_radial_164_194" cx="0" cy="0" r="1" gradientUnits="userSpaceOnUse" gradientTransform="translate(112.63 84.4612) scale(172.669 172.837)"><stop stop-color="#E39A65"></stop><stop offset="0.252" stop-color="#A92FFB"></stop><stop offset="0.7357" stop-color="#3919BB"></stop></radialGradient><linearGradient id="paint17_linear_164_194" x1="165.697" y1="127.641" x2="179.114" y2="127.641" gradientUnits="userSpaceOnUse"><stop stop-color="#131060"></stop><stop offset="0.1857" stop-color="#141062"></stop><stop offset="0.2823" stop-color="#19106A"></stop><stop offset="0.3584" stop-color="#221078"></stop><stop offset="0.4238" stop-color="#2E0F8B"></stop><stop offset="0.4823" stop-color="#3E0FA3"></stop><stop offset="0.5359" stop-color="#510EC2"></stop><stop offset="0.5847" stop-color="#680DE5"></stop><stop offset="0.6071" stop-color="#740DF8"></stop><stop offset="0.6179" stop-color="#7A14F0"></stop><stop offset="0.6826" stop-color="#9B3CC3"></stop><stop offset="0.7477" stop-color="#B75D9D"></stop><stop offset="0.8123" stop-color="#CC7680"></stop><stop offset="0.8762" stop-color="#DC886C"></stop><stop offset="0.9391" stop-color="#E5935F"></stop><stop offset="1" stop-color="#E8975B"></stop></linearGradient></defs></svg>